<?xml version="1.0" encoding="UTF-8" standalone="no"?>
<!DOCTYPE svg PUBLIC "-//W3C//DTD SVG 1.1//EN"
 "http://www.w3.org/Graphics/SVG/1.1/DTD/svg11.dtd">
<!-- Generated by graphviz version 2.40.1 (20161225.0304)
 -->
<!-- Title: controllers_diagram Pages: 1 -->
<svg width="359pt" height="259pt"
 viewBox="0.00 0.00 359.38 259.00" xmlns="http://www.w3.org/2000/svg" xmlns:xlink="http://www.w3.org/1999/xlink">
<g id="graph0" class="graph" transform="scale(1 1) rotate(0) translate(4 255)">
<title>controllers_diagram</title>
<polygon fill="transparent" stroke="transparent" points="-4,4 -4,-255 355.3755,-255 355.3755,4 -4,4"/>
<!-- _diagram_info -->
<g id="node1" class="node">
<title>_diagram_info</title>
<text text-anchor="start" x="152" y="-90.6" font-family="Times,serif" font-size="13.00" fill="#000000">Controllers diagram</text>
<text text-anchor="start" x="152" y="-77.6" font-family="Times,serif" font-size="13.00" fill="#000000">Date: Jan 26 2020 &#45; 18:36</text>
<text text-anchor="start" x="152" y="-64.6" font-family="Times,serif" font-size="13.00" fill="#000000">Migration version: 20190823173505</text>
<text text-anchor="start" x="152" y="-51.6" font-family="Times,serif" font-size="13.00" fill="#000000">Generated by RailRoady 1.5.3</text>
<text text-anchor="start" x="152" y="-38.6" font-family="Times,serif" font-size="13.00" fill="#000000">http://railroady.prestonlee.com</text>
</g>
<!-- ApplicationController -->
<g id="node2" class="node">
<title>ApplicationController</title>
<path fill="none" stroke="#000000" d="M156,-144.5C156,-144.5 271.6416,-144.5 271.6416,-144.5 277.6416,-144.5 283.6416,-150.5 283.6416,-156.5 283.6416,-156.5 283.6416,-238.5 283.6416,-238.5 283.6416,-244.5 277.6416,-250.5 271.6416,-250.5 271.6416,-250.5 156,-250.5 156,-250.5 150,-250.5 144,-244.5 144,-238.5 144,-238.5 144,-156.5 144,-156.5 144,-150.5 150,-144.5 156,-144.5"/>
<text text-anchor="middle" x="213.8208" y="-235.3" font-family="Times,serif" font-size="14.00" fill="#000000">ApplicationController</text>
<polyline fill="none" stroke="#000000" points="144,-228.5 283.6416,-228.5 "/>
<polyline fill="none" stroke="#000000" points="144,-204.5 283.6416,-204.5 "/>
<polyline fill="none" stroke="#000000" points="144,-180.5 283.6416,-180.5 "/>
<text text-anchor="start" x="152" y="-165.3" font-family="Times,serif" font-size="14.00" fill="#000000">_layout</text>
<text text-anchor="start" x="152" y="-151.3" font-family="Times,serif" font-size="14.00" fill="#000000">rules_user</text>
</g>
<!-- BooksController -->
<g id="node3" class="node">
<title>BooksController</title>
<path fill="none" stroke="#000000" d="M12,-.5C12,-.5 97.3311,-.5 97.3311,-.5 103.3311,-.5 109.3311,-6.5 109.3311,-12.5 109.3311,-12.5 109.3311,-190.5 109.3311,-190.5 109.3311,-196.5 103.3311,-202.5 97.3311,-202.5 97.3311,-202.5 12,-202.5 12,-202.5 6,-202.5 0,-196.5 0,-190.5 0,-190.5 0,-12.5 0,-12.5 0,-6.5 6,-.5 12,-.5"/>
<text text-anchor="middle" x="54.6655" y="-187.3" font-family="Times,serif" font-size="14.00" fill="#000000">BooksController</text>
<polyline fill="none" stroke="#000000" points="0,-180.5 109.3311,-180.5 "/>
<text text-anchor="start" x="8" y="-165.3" font-family="Times,serif" font-size="14.00" fill="#000000">create</text>
<text text-anchor="start" x="8" y="-151.3" font-family="Times,serif" font-size="14.00" fill="#000000">destroy</text>
<text text-anchor="start" x="8" y="-137.3" font-family="Times,serif" font-size="14.00" fill="#000000">edit</text>
<text text-anchor="start" x="8" y="-123.3" font-family="Times,serif" font-size="14.00" fill="#000000">index</text>
<text text-anchor="start" x="8" y="-109.3" font-family="Times,serif" font-size="14.00" fill="#000000">new</text>
<text text-anchor="start" x="8" y="-95.3" font-family="Times,serif" font-size="14.00" fill="#000000">show</text>
<text text-anchor="start" x="8" y="-81.3" font-family="Times,serif" font-size="14.00" fill="#000000">update</text>
<polyline fill="none" stroke="#000000" points="0,-74.5 109.3311,-74.5 "/>
<polyline fill="none" stroke="#000000" points="0,-50.5 109.3311,-50.5 "/>
<text text-anchor="start" x="8" y="-35.3" font-family="Times,serif" font-size="14.00" fill="#000000">_layout</text>
<text text-anchor="start" x="8" y="-21.3" font-family="Times,serif" font-size="14.00" fill="#000000">book_params</text>
<text text-anchor="start" x="8" y="-7.3" font-family="Times,serif" font-size="14.00" fill="#000000">set_book</text>
</g>
</g>
</svg>
