<?xml version="1.0" encoding="UTF-8" standalone="no"?>
<!DOCTYPE svg PUBLIC "-//W3C//DTD SVG 1.1//EN"
 "http://www.w3.org/Graphics/SVG/1.1/DTD/svg11.dtd">
<!-- Generated by graphviz version 2.40.1 (20161225.0304)
 -->
<!-- Title: models_diagram Pages: 1 -->
<svg width="777pt" height="165pt"
 viewBox="0.00 0.00 776.73 165.00" xmlns="http://www.w3.org/2000/svg" xmlns:xlink="http://www.w3.org/1999/xlink">
<g id="graph0" class="graph" transform="scale(1 1) rotate(0) translate(4 161)">
<title>models_diagram</title>
<polygon fill="transparent" stroke="transparent" points="-4,4 -4,-161 772.7346,-161 772.7346,4 -4,4"/>
<!-- _diagram_info -->
<g id="node1" class="node">
<title>_diagram_info</title>
<text text-anchor="start" x="8" y="-100.6" font-family="Times,serif" font-size="13.00" fill="#000000">Models diagram</text>
<text text-anchor="start" x="8" y="-87.6" font-family="Times,serif" font-size="13.00" fill="#000000">Date: Jan 26 2020 &#45; 18:36</text>
<text text-anchor="start" x="8" y="-74.6" font-family="Times,serif" font-size="13.00" fill="#000000">Migration version: 20190823173505</text>
<text text-anchor="start" x="8" y="-61.6" font-family="Times,serif" font-size="13.00" fill="#000000">Generated by RailRoady 1.5.3</text>
<text text-anchor="start" x="8" y="-48.6" font-family="Times,serif" font-size="13.00" fill="#000000">http://railroady.prestonlee.com</text>
</g>
<!-- Book -->
<g id="node2" class="node">
<title>Book</title>
<path fill="none" stroke="#000000" d="M237.1824,-21.5C237.1824,-21.5 346.1931,-21.5 346.1931,-21.5 352.1931,-21.5 358.1931,-27.5 358.1931,-33.5 358.1931,-33.5 358.1931,-123.5 358.1931,-123.5 358.1931,-129.5 352.1931,-135.5 346.1931,-135.5 346.1931,-135.5 237.1824,-135.5 237.1824,-135.5 231.1824,-135.5 225.1824,-129.5 225.1824,-123.5 225.1824,-123.5 225.1824,-33.5 225.1824,-33.5 225.1824,-27.5 231.1824,-21.5 237.1824,-21.5"/>
<text text-anchor="middle" x="291.6877" y="-120.3" font-family="Times,serif" font-size="14.00" fill="#000000">Book</text>
<polyline fill="none" stroke="#000000" points="225.1824,-113.5 358.1931,-113.5 "/>
<text text-anchor="start" x="233.1824" y="-98.3" font-family="Times,serif" font-size="14.00" fill="#000000">id :bigint(20)</text>
<text text-anchor="start" x="233.1824" y="-84.3" font-family="Times,serif" font-size="14.00" fill="#000000">author :varchar(255)</text>
<text text-anchor="start" x="233.1824" y="-70.3" font-family="Times,serif" font-size="14.00" fill="#000000">title :varchar(255)</text>
<text text-anchor="start" x="233.1824" y="-56.3" font-family="Times,serif" font-size="14.00" fill="#000000">user_id :bigint(20)</text>
<text text-anchor="start" x="233.1824" y="-42.3" font-family="Times,serif" font-size="14.00" fill="#000000">created_at :datetime</text>
<text text-anchor="start" x="233.1824" y="-28.3" font-family="Times,serif" font-size="14.00" fill="#000000">updated_at :datetime</text>
</g>
<!-- ApplicationRecord -->
<g id="node3" class="node">
<title>ApplicationRecord</title>
<ellipse fill="none" stroke="#000000" cx="453.6877" cy="-78.5" rx="77.2916" ry="18"/>
<text text-anchor="middle" x="453.6877" y="-74.3" font-family="Times,serif" font-size="14.00" fill="#000000">ApplicationRecord</text>
</g>
<!-- User -->
<g id="node4" class="node">
<title>User</title>
<path fill="none" stroke="#000000" d="M560.6409,-.5C560.6409,-.5 756.7346,-.5 756.7346,-.5 762.7346,-.5 768.7346,-6.5 768.7346,-12.5 768.7346,-12.5 768.7346,-144.5 768.7346,-144.5 768.7346,-150.5 762.7346,-156.5 756.7346,-156.5 756.7346,-156.5 560.6409,-156.5 560.6409,-156.5 554.6409,-156.5 548.6409,-150.5 548.6409,-144.5 548.6409,-144.5 548.6409,-12.5 548.6409,-12.5 548.6409,-6.5 554.6409,-.5 560.6409,-.5"/>
<text text-anchor="middle" x="658.6877" y="-141.3" font-family="Times,serif" font-size="14.00" fill="#000000">User</text>
<polyline fill="none" stroke="#000000" points="548.6409,-134.5 768.7346,-134.5 "/>
<text text-anchor="start" x="556.6409" y="-119.3" font-family="Times,serif" font-size="14.00" fill="#000000">updated_at :datetime</text>
<text text-anchor="start" x="556.6409" y="-105.3" font-family="Times,serif" font-size="14.00" fill="#000000">email :varchar(255)</text>
<text text-anchor="start" x="556.6409" y="-91.3" font-family="Times,serif" font-size="14.00" fill="#000000">encrypted_password :varchar(255)</text>
<text text-anchor="start" x="556.6409" y="-77.3" font-family="Times,serif" font-size="14.00" fill="#000000">name :varchar(255)</text>
<text text-anchor="start" x="556.6409" y="-63.3" font-family="Times,serif" font-size="14.00" fill="#000000">reset_password_token :varchar(255)</text>
<text text-anchor="start" x="556.6409" y="-49.3" font-family="Times,serif" font-size="14.00" fill="#000000">reset_password_sent_at :datetime</text>
<text text-anchor="start" x="556.6409" y="-35.3" font-family="Times,serif" font-size="14.00" fill="#000000">remember_created_at :datetime</text>
<text text-anchor="start" x="556.6409" y="-21.3" font-family="Times,serif" font-size="14.00" fill="#000000">created_at :datetime</text>
<text text-anchor="start" x="556.6409" y="-7.3" font-family="Times,serif" font-size="14.00" fill="#000000">id :bigint(20)</text>
</g>
</g>
</svg>
